<?xml version="1.0" encoding="UTF-8" standalone="no"?>
<svg
   version="1.1"
   id="Capa_1"
   x="0px"
   y="0px"
   width="16"
   height="16"
   viewBox="0 0 16 16"
   xml:space="preserve"
   sodipodi:docname="mask.svg"
   inkscape:version="1.1 (c68e22c387, 2021-05-23)"
   xmlns:inkscape="http://www.inkscape.org/namespaces/inkscape"
   xmlns:sodipodi="http://sodipodi.sourceforge.net/DTD/sodipodi-0.dtd"
   xmlns="http://www.w3.org/2000/svg"
   xmlns:svg="http://www.w3.org/2000/svg"><defs
   id="defs14" /><sodipodi:namedview
   id="namedview12"
   pagecolor="#ffffff"
   bordercolor="#666666"
   borderopacity="1.0"
   inkscape:pageshadow="2"
   inkscape:pageopacity="0.0"
   inkscape:pagecheckerboard="true"
   showgrid="false"
   inkscape:zoom="34.427261"
   inkscape:cx="8.0604727"
   inkscape:cy="9.5128101"
   inkscape:window-width="1756"
   inkscape:window-height="1003"
   inkscape:window-x="1795"
   inkscape:window-y="199"
   inkscape:window-maximized="0"
   inkscape:current-layer="Capa_1" /><g
   id="g9"
   style="stroke-width:1.04064"
   transform="matrix(0.93750586,0,0,0.98497024,0.5,-2.8258638)"><g
     id="g7"
     style="stroke-width:1.04064">
	<g
   id="_x36_5._Cut"
   style="stroke-width:1.04064">
		<g
   id="g4"
   style="stroke-width:1.04064">
			<path
   d="m 12.7999,12.2062 c -0.4035,0 -0.7883,0.0779 -1.1438,0.2142 L 9.7554,10.5653 13.2495,7.15474 C 13.8819,6.53756 14.3943,5.32078 14.3943,4.43718 V 4.21083 c 0,-0.8836 -0.5124,-1.09956 -1.1448,-0.48249 L 7.99985,8.85208 2.75032,3.72845 C 2.11785,3.11127 1.60522,3.32723 1.60522,4.21094 v 0.2259 c 0,0.88359 0.51274,2.10038 1.1451,2.71756 l 3.49387,3.41 -1.90063,1.8553 C 3.98811,12.2837 3.60356,12.2063 3.19994,12.2063 1.43241,12.2062 0,13.6383 0,15.4064 c 0,1.7671 1.43241,3.1991 3.19994,3.1991 1.76719,0 3.19994,-1.432 3.19994,-3.1991 0,-0.4625 -0.09999,-0.9 -0.27589,-1.2969 l 1.87598,-1.8312 1.87586,1.8312 c -0.17579,0.3962 -0.27578,0.8345 -0.27578,1.2969 0,1.7671 1.43245,3.1991 3.19995,3.1991 1.7671,0 3.1999,-1.432 3.1999,-3.1991 -10e-5,-1.7681 -1.4328,-3.2002 -3.2,-3.2002 z m -9.59996,4.7993 c -0.8836,0 -1.59997,-0.7157 -1.59997,-1.5992 0,-0.8844 0.71637,-1.6001 1.59997,-1.6001 0.8836,0 1.59997,0.7157 1.59997,1.6001 0,0.8836 -0.71637,1.5992 -1.59997,1.5992 z m 9.59996,0 c -0.8836,0 -1.6001,-0.7157 -1.6001,-1.5992 0,-0.8844 0.7164,-1.6001 1.6001,-1.6001 0.8837,0 1.6001,0.7157 1.6001,1.6001 0,0.8836 -0.7165,1.5992 -1.6001,1.5992 z"
   data-original="#000000"
   class="active-path"
   data-old_color="#ffffff"
   fill="#ffffff"
   id="path2"
   style="stroke-width:9.11677" />
		</g>
	</g>
</g></g> </svg>
